<?xml version="1.0" encoding="UTF-8"?>
<svg xmlns="http://www.w3.org/2000/svg" viewBox="0 0 64 64" width="64" height="64">
  <defs>
    <linearGradient id="v" x1="0%" y1="100%" x2="0%" y2="0%">
      <stop offset="0%" style="stop-color:#1B5E3F"/>
      <stop offset="100%" style="stop-color:#2E7D5A"/>
    </linearGradient>
    <linearGradient id="t" x1="0%" y1="100%" x2="0%" y2="0%">
      <stop offset="0%" style="stop-color:#8B4513"/>
      <stop offset="100%" style="stop-color:#C4723D"/>
    </linearGradient>
    <linearGradient id="g" x1="0%" y1="0%" x2="0%" y2="100%">
      <stop offset="0%" style="stop-color:#D4AF37"/>
      <stop offset="100%" style="stop-color:#B8860B"/>
    </linearGradient>
  </defs>
  <!-- Racines -->
  <path d="M 22 26 Q 14 32 12 42 L 14 43 Q 16 34 24 27 Z" fill="url(#v)"/>
  <path d="M 32 28 L 31 38 L 33 38 Z" fill="url(#v)"/>
  <path d="M 42 26 Q 50 32 52 42 L 50 43 Q 48 34 40 27 Z" fill="url(#v)"/>
  <!-- Tronc = + -->
  <rect x="30" y="14" width="4" height="26" rx="1" fill="url(#t)"/>
  <rect x="18" y="24" width="28" height="4" rx="1" fill="url(#t)"/>
  <!-- Branches -->
  <path d="M 32 14 L 32 4 L 42 0 L 44 10 L 34 8 Z" fill="url(#v)"/>
  <path d="M 32 14 L 32 4 L 22 0 L 20 10 L 30 8 Z" fill="url(#v)"/>
  <circle cx="40" cy="4" r="2.5" fill="url(#g)"/>
  <circle cx="24" cy="4" r="2.5" fill="url(#g)"/>
  <circle cx="32" cy="0" r="3" fill="url(#g)"/>
</svg>
